<svg xmlns="http://www.w3.org/2000/svg" width="1600" height="1000" viewBox="0 0 1600 1000" role="img" aria-labelledby="title desc">
  <title id="title">CSULB Biotech Career Hub brand mark workshop</title>
  <desc id="desc">Three vector brand mark directions shown at masthead and favicon sizes.</desc>
  <rect width="1600" height="1000" fill="#fbf8f1"/>

  <g fill="#071927">
    <text x="72" y="86" font-family="Georgia, serif" font-size="50">A mark for discovery, evidence, and access.</text>
    <text x="74" y="126" font-family="Arial, sans-serif" font-size="17" letter-spacing="2.8" fill="#536058">VECTOR WORKSHOP · THREE DIRECTIONS · NOT YET APPLIED</text>
  </g>

  <!-- Direction 01 -->
  <g transform="translate(72 184)">
    <rect width="448" height="646" rx="2" fill="#ffffff" stroke="#d9d2c3"/>
    <text x="30" y="46" font-family="Arial, sans-serif" font-size="15" font-weight="700" letter-spacing="2.2" fill="#a76500">01 · EVIDENCE BANDS</text>
    <text x="30" y="78" font-family="Arial, sans-serif" font-size="16" fill="#536058">A quieter refinement of the current mark</text>

    <g transform="translate(30 112)">
      <rect width="104" height="104" rx="15" fill="#071927"/>
      <path d="M20 31H84" stroke="#11b9a4" stroke-width="7" stroke-linecap="round"/>
      <path d="M20 52H84" stroke="#efb537" stroke-width="7" stroke-linecap="round"/>
      <path d="M20 73H84" stroke="#11b9a4" stroke-width="7" stroke-linecap="round"/>
      <circle cx="39" cy="31" r="7" fill="#fbf8f1"/>
      <circle cx="67" cy="52" r="7" fill="#fbf8f1"/>
      <circle cx="48" cy="73" r="7" fill="#fbf8f1"/>
    </g>
    <g transform="translate(153 136)">
      <text font-family="Georgia, serif" font-size="23" fill="#a76500">CSULB</text>
      <text y="28" font-family="Georgia, serif" font-size="25" fill="#071927">Biotech Career Hub</text>
      <text y="55" font-family="Arial, sans-serif" font-size="10" letter-spacing="1.8" fill="#536058">SEARCH · EVIDENCE · OPPORTUNITY</text>
    </g>

    <line x1="30" y1="249" x2="418" y2="249" stroke="#d9d2c3"/>
    <text x="30" y="286" font-family="Georgia, serif" font-size="26" fill="#071927">What it says</text>
    <text x="30" y="320" font-family="Arial, sans-serif" font-size="16" fill="#37443d">Structured evidence moving through a</text>
    <text x="30" y="344" font-family="Arial, sans-serif" font-size="16" fill="#37443d">review system. Familiar, precise, digital.</text>

    <text x="30" y="399" font-family="Arial, sans-serif" font-size="13" font-weight="700" letter-spacing="1.6" fill="#536058">SMALL-SIZE TEST</text>
    <g transform="translate(30 420)">
      <rect width="40" height="40" rx="7" fill="#071927"/>
      <path d="M9 12H31M9 20H31M9 28H31" stroke="#11b9a4" stroke-width="3.5" stroke-linecap="round"/>
      <circle cx="16" cy="12" r="3" fill="#fbf8f1"/>
      <circle cx="25" cy="20" r="3" fill="#efb537"/>
      <circle cx="18" cy="28" r="3" fill="#fbf8f1"/>
    </g>
    <g transform="translate(91 425)">
      <rect width="30" height="30" rx="5" fill="#071927"/>
      <path d="M7 9H23M7 15H23M7 21H23" stroke="#11b9a4" stroke-width="3" stroke-linecap="round"/>
      <circle cx="12" cy="9" r="2.3" fill="#fbf8f1"/>
      <circle cx="19" cy="15" r="2.3" fill="#efb537"/>
      <circle cx="13" cy="21" r="2.3" fill="#fbf8f1"/>
    </g>
    <g transform="translate(140 432)">
      <rect width="16" height="16" rx="3" fill="#071927"/>
      <path d="M4 5H12M4 8H12M4 11H12" stroke="#11b9a4" stroke-width="1.8" stroke-linecap="round"/>
    </g>

    <rect x="30" y="500" width="388" height="112" rx="2" fill="#071927"/>
    <g transform="translate(51 523)">
      <rect width="54" height="54" rx="8" fill="#fbf8f1"/>
      <path d="M11 17H43M11 27H43M11 37H43" stroke="#0b7669" stroke-width="4" stroke-linecap="round"/>
      <circle cx="21" cy="17" r="4" fill="#071927"/>
      <circle cx="34" cy="27" r="4" fill="#a76500"/>
      <circle cx="23" cy="37" r="4" fill="#071927"/>
    </g>
    <text x="123" y="546" font-family="Georgia, serif" font-size="21" fill="#efb537">CSULB</text>
    <text x="123" y="572" font-family="Georgia, serif" font-size="21" fill="#ffffff">Biotech Career Hub</text>
    <text x="51" y="597" font-family="Arial, sans-serif" font-size="11" letter-spacing="1.9" fill="#a5b6b0">REVERSED LOCKUP</text>
  </g>

  <!-- Direction 02 -->
  <g transform="translate(576 184)">
    <rect width="448" height="646" rx="2" fill="#ffffff" stroke="#d9d2c3"/>
    <text x="30" y="46" font-family="Arial, sans-serif" font-size="15" font-weight="700" letter-spacing="2.2" fill="#a76500">02 · CELL ATLAS</text>
    <text x="30" y="78" font-family="Arial, sans-serif" font-size="16" fill="#536058">Biology made legible without a literal icon</text>

    <g transform="translate(30 112)">
      <rect width="104" height="104" rx="15" fill="#071927"/>
      <circle cx="52" cy="52" r="31" fill="none" stroke="#11b9a4" stroke-width="5"/>
      <path d="M23 54C33 39 41 67 51 49S70 34 83 49" fill="none" stroke="#fbf8f1" stroke-width="4" stroke-linecap="round"/>
      <circle cx="52" cy="52" r="9" fill="#efb537"/>
      <circle cx="28" cy="38" r="4" fill="#fbf8f1"/>
      <circle cx="75" cy="68" r="4" fill="#fbf8f1"/>
    </g>
    <g transform="translate(153 136)">
      <text font-family="Georgia, serif" font-size="23" fill="#a76500">CSULB</text>
      <text y="28" font-family="Georgia, serif" font-size="25" fill="#071927">Biotech Career Hub</text>
      <text y="55" font-family="Arial, sans-serif" font-size="10" letter-spacing="1.8" fill="#536058">SEE THE FIELD · FIND YOUR PLACE</text>
    </g>

    <line x1="30" y1="249" x2="418" y2="249" stroke="#d9d2c3"/>
    <text x="30" y="286" font-family="Georgia, serif" font-size="26" fill="#071927">What it says</text>
    <text x="30" y="320" font-family="Arial, sans-serif" font-size="16" fill="#37443d">Living systems, observed patterns, and a</text>
    <text x="30" y="344" font-family="Arial, sans-serif" font-size="16" fill="#37443d">student finding position within a larger field.</text>

    <text x="30" y="399" font-family="Arial, sans-serif" font-size="13" font-weight="700" letter-spacing="1.6" fill="#536058">SMALL-SIZE TEST</text>
    <g transform="translate(30 420)">
      <rect width="40" height="40" rx="7" fill="#071927"/>
      <circle cx="20" cy="20" r="12" fill="none" stroke="#11b9a4" stroke-width="2.5"/>
      <path d="M9 21C13 15 16 26 20 19S27 14 32 19" fill="none" stroke="#fbf8f1" stroke-width="2" stroke-linecap="round"/>
      <circle cx="20" cy="20" r="4" fill="#efb537"/>
    </g>
    <g transform="translate(91 425)">
      <rect width="30" height="30" rx="5" fill="#071927"/>
      <circle cx="15" cy="15" r="9" fill="none" stroke="#11b9a4" stroke-width="2"/>
      <path d="M7 16C10 11 12 20 15 14S20 11 24 14" fill="none" stroke="#fbf8f1" stroke-width="1.6" stroke-linecap="round"/>
      <circle cx="15" cy="15" r="3" fill="#efb537"/>
    </g>
    <g transform="translate(140 432)">
      <rect width="16" height="16" rx="3" fill="#071927"/>
      <circle cx="8" cy="8" r="5" fill="none" stroke="#11b9a4" stroke-width="1.4"/>
      <circle cx="8" cy="8" r="2" fill="#efb537"/>
    </g>

    <rect x="30" y="500" width="388" height="112" rx="2" fill="#071927"/>
    <g transform="translate(51 523)">
      <rect width="54" height="54" rx="8" fill="#fbf8f1"/>
      <circle cx="27" cy="27" r="16" fill="none" stroke="#0b7669" stroke-width="3"/>
      <path d="M12 28C17 20 21 34 27 25S37 19 43 25" fill="none" stroke="#071927" stroke-width="2.5" stroke-linecap="round"/>
      <circle cx="27" cy="27" r="5" fill="#a76500"/>
    </g>
    <text x="123" y="546" font-family="Georgia, serif" font-size="21" fill="#efb537">CSULB</text>
    <text x="123" y="572" font-family="Georgia, serif" font-size="21" fill="#ffffff">Biotech Career Hub</text>
    <text x="51" y="597" font-family="Arial, sans-serif" font-size="11" letter-spacing="1.9" fill="#a5b6b0">REVERSED LOCKUP</text>
  </g>

  <!-- Direction 03 -->
  <g transform="translate(1080 184)">
    <rect width="448" height="646" rx="2" fill="#ffffff" stroke="#d9d2c3"/>
    <text x="30" y="46" font-family="Arial, sans-serif" font-size="15" font-weight="700" letter-spacing="2.2" fill="#a76500">03 · DISCOVERY PATH</text>
    <text x="30" y="78" font-family="Arial, sans-serif" font-size="16" fill="#536058">A field of possibilities with a visible route</text>

    <g transform="translate(30 112)">
      <rect width="104" height="104" rx="15" fill="#071927"/>
      <circle cx="25" cy="29" r="6" fill="#11b9a4"/>
      <circle cx="77" cy="25" r="4" fill="#fbf8f1"/>
      <circle cx="31" cy="75" r="4" fill="#fbf8f1"/>
      <circle cx="79" cy="73" r="7" fill="#efb537"/>
      <path d="M25 29C55 22 42 63 79 73" fill="none" stroke="#11b9a4" stroke-width="5" stroke-linecap="round"/>
      <path d="M77 25C69 39 77 49 79 73" fill="none" stroke="#fbf8f1" stroke-width="2.5" stroke-linecap="round" opacity=".8"/>
    </g>
    <g transform="translate(153 136)">
      <text font-family="Georgia, serif" font-size="23" fill="#a76500">CSULB</text>
      <text y="28" font-family="Georgia, serif" font-size="25" fill="#071927">Biotech Career Hub</text>
      <text y="55" font-family="Arial, sans-serif" font-size="10" letter-spacing="1.8" fill="#536058">MORE WAYS INTO THE WORK</text>
    </g>

    <line x1="30" y1="249" x2="418" y2="249" stroke="#d9d2c3"/>
    <text x="30" y="286" font-family="Georgia, serif" font-size="26" fill="#071927">What it says</text>
    <text x="30" y="320" font-family="Arial, sans-serif" font-size="16" fill="#37443d">A broad search resolved into a path. More</text>
    <text x="30" y="344" font-family="Arial, sans-serif" font-size="16" fill="#37443d">human and directional, less distinctly biotech.</text>

    <text x="30" y="399" font-family="Arial, sans-serif" font-size="13" font-weight="700" letter-spacing="1.6" fill="#536058">SMALL-SIZE TEST</text>
    <g transform="translate(30 420)">
      <rect width="40" height="40" rx="7" fill="#071927"/>
      <circle cx="10" cy="11" r="3.5" fill="#11b9a4"/>
      <circle cx="30" cy="29" r="4" fill="#efb537"/>
      <path d="M10 11C22 8 16 25 30 29" fill="none" stroke="#11b9a4" stroke-width="2.5" stroke-linecap="round"/>
      <circle cx="29" cy="10" r="2.4" fill="#fbf8f1"/>
      <circle cx="11" cy="29" r="2.4" fill="#fbf8f1"/>
    </g>
    <g transform="translate(91 425)">
      <rect width="30" height="30" rx="5" fill="#071927"/>
      <circle cx="8" cy="8" r="3" fill="#11b9a4"/>
      <circle cx="23" cy="22" r="3.5" fill="#efb537"/>
      <path d="M8 8C17 6 12 19 23 22" fill="none" stroke="#11b9a4" stroke-width="2" stroke-linecap="round"/>
    </g>
    <g transform="translate(140 432)">
      <rect width="16" height="16" rx="3" fill="#071927"/>
      <circle cx="4.5" cy="4.5" r="2" fill="#11b9a4"/>
      <circle cx="12" cy="12" r="2.3" fill="#efb537"/>
      <path d="M4.5 4.5C9 3 6 10 12 12" fill="none" stroke="#11b9a4" stroke-width="1.4"/>
    </g>

    <rect x="30" y="500" width="388" height="112" rx="2" fill="#071927"/>
    <g transform="translate(51 523)">
      <rect width="54" height="54" rx="8" fill="#fbf8f1"/>
      <circle cx="14" cy="15" r="4" fill="#0b7669"/>
      <circle cx="41" cy="39" r="5" fill="#a76500"/>
      <path d="M14 15C31 11 20 34 41 39" fill="none" stroke="#0b7669" stroke-width="3" stroke-linecap="round"/>
      <circle cx="40" cy="14" r="3" fill="#071927"/>
      <circle cx="15" cy="40" r="3" fill="#071927"/>
    </g>
    <text x="123" y="546" font-family="Georgia, serif" font-size="21" fill="#efb537">CSULB</text>
    <text x="123" y="572" font-family="Georgia, serif" font-size="21" fill="#ffffff">Biotech Career Hub</text>
    <text x="51" y="597" font-family="Arial, sans-serif" font-size="11" letter-spacing="1.9" fill="#a5b6b0">REVERSED LOCKUP</text>
  </g>

  <g transform="translate(72 870)">
    <line x1="0" y1="0" x2="1456" y2="0" stroke="#c9c1b0"/>
    <text y="45" font-family="Georgia, serif" font-size="25" fill="#071927">The live mark stays unchanged until one direction earns the lockup.</text>
    <text y="78" font-family="Arial, sans-serif" font-size="15" fill="#536058">Evaluation: recognizability at 16 px · distinctiveness from generic biotech marks · fit with the editorial system · reproduction in one color</text>
  </g>
</svg>
